<svg viewBox="0 0 512 512" xmlns="http://www.w3.org/2000/svg">
  <path d="M116.6 407c40-45.9 60.4-98.4 60.4-151s-20.4-105.1-60.4-151h75.4c34.1 0 81.9 34 119.3 71.4 18.7 18.6 35.1 37.9 46.6 53.3 5.8 7.6 10.4 14.4 13.4 19.4 1.4 2.5 2.5 4.7 3.2 6.1.1.4.2.5.2.8s-.1.5-.2.9c-.6 1.4-1.7 3.5-3.2 6-3 5.1-7.5 11.8-13.2 19.5-11.3 15.4-27.5 34.6-46.1 53.2-37.2 37.4-84.9 71.4-120 71.4zm-100.6-46v-18h122.2c-3 6.1-6.3 12.1-9.9 18zm374.5-96c.2-.3.4-.7.5-1 1.1-2.4 2-4.4 2-8s-1-5.6-2-8c-.1-.3-.3-.7-.5-1h105.5v18zm-374.5-96v-18h112.3c3.6 5.9 6.9 11.9 9.9 18z" fill="#fff"/>
</svg>
