<?xml version="1.0" encoding="UTF-8"?>
<svg xmlns="http://www.w3.org/2000/svg" xmlns:xlink="http://www.w3.org/1999/xlink" width="56px" height="56px" viewBox="0 0 56 56" version="1.1">
<g id="surface1">
<path style=" stroke:none;fill-rule:nonzero;fill:rgb(100%,100%,100%);fill-opacity:1;" d="M 12.753906 44.515625 C 17.128906 39.496094 19.359375 33.753906 19.359375 28 C 19.359375 22.246094 17.128906 16.503906 12.753906 11.484375 L 21 11.484375 C 24.730469 11.484375 29.957031 15.203125 34.046875 19.292969 C 36.09375 21.328125 37.886719 23.4375 39.144531 25.125 C 39.78125 25.953125 40.28125 26.699219 40.609375 27.246094 C 40.765625 27.519531 40.882812 27.757812 40.960938 27.914062 C 40.972656 27.957031 40.984375 27.96875 40.984375 28 C 40.984375 28.03125 40.972656 28.054688 40.960938 28.097656 C 40.894531 28.25 40.773438 28.480469 40.609375 28.753906 C 40.28125 29.3125 39.789062 30.046875 39.167969 30.886719 C 37.929688 32.570312 36.160156 34.671875 34.125 36.707031 C 30.054688 40.796875 24.839844 44.515625 21 44.515625 Z M 1.75 39.484375 L 1.75 37.515625 L 15.117188 37.515625 C 14.789062 38.183594 14.425781 38.839844 14.03125 39.484375 Z M 42.710938 28.984375 C 42.734375 28.953125 42.753906 28.90625 42.765625 28.875 C 42.886719 28.613281 42.984375 28.394531 42.984375 28 C 42.984375 27.605469 42.875 27.386719 42.765625 27.125 C 42.753906 27.09375 42.734375 27.046875 42.710938 27.015625 L 54.25 27.015625 L 54.25 28.984375 Z M 1.75 18.484375 L 1.75 16.515625 L 14.03125 16.515625 C 14.425781 17.160156 14.789062 17.816406 15.117188 18.484375 Z M 1.75 18.484375 "/>
</g>
</svg>
