<?xml version="1.0" encoding="UTF-8"?>
<svg xmlns="http://www.w3.org/2000/svg" xmlns:xlink="http://www.w3.org/1999/xlink" width="56px" height="56px" viewBox="0 0 56 56" version="1.1">
<g id="surface1">
<path style="stroke:none;fill-rule:nonzero;fill:rgb(100%,100%,100%);fill-opacity:1;" d="M 23.222656 24.535156 L 1.3125 24.535156 C 0.585938 24.535156 0 23.949219 0 23.222656 L 0 1.3125 C 0 0.585938 0.585938 0 1.3125 0 L 6.5625 0 C 7.289062 0 7.875 0.585938 7.875 1.3125 L 7.875 9.855469 C 12.882812 4.296875 20.152344 0.816406 28.238281 0.875 C 43.210938 0.984375 55.191406 13.085938 55.160156 28.058594 C 55.128906 43.011719 42.996094 55.125 28.035156 55.125 C 21.027344 55.125 14.636719 52.464844 9.824219 48.101562 C 9.265625 47.597656 9.242188 46.726562 9.773438 46.195312 L 13.488281 42.480469 C 13.976562 41.992188 14.765625 41.964844 15.28125 42.421875 C 18.675781 45.425781 23.140625 47.25 28.035156 47.25 C 38.675781 47.25 47.285156 38.640625 47.285156 28 C 47.285156 17.363281 38.675781 8.75 28.035156 8.75 C 21.636719 8.75 15.972656 11.863281 12.476562 16.660156 L 23.222656 16.660156 C 23.949219 16.660156 24.535156 17.25 24.535156 17.972656 L 24.535156 23.222656 C 24.535156 23.949219 23.949219 24.535156 23.222656 24.535156 Z M 23.222656 24.535156 "/>
</g>
</svg>
