<?xml version="1.0" encoding="UTF-8"?>
<svg xmlns="http://www.w3.org/2000/svg" xmlns:xlink="http://www.w3.org/1999/xlink" width="56px" height="56px" viewBox="0 0 56 56" version="1.1">
<g id="surface1">
<path style=" stroke:none;fill-rule:nonzero;fill:rgb(100%,100%,100%);fill-opacity:1;" d="M 23.855469 42 C 23.90625 41.9375 23.957031 41.875 24.015625 41.816406 L 34.648438 31.183594 L 23.101562 19.632812 L 21.363281 21.367188 L 10.285156 32.652344 L 19.628906 42 Z M 23.855469 42 "/>
<path style=" stroke:none;fill-rule:nonzero;fill:rgb(0%,0%,0%);fill-opacity:1;" d="M 29.132812 7 L 18.046875 18.082031 L 6.957031 29.382812 C 5.167969 31.199219 5.179688 34.144531 6.984375 35.949219 L 17.015625 45.980469 C 17.449219 46.421875 18.042969 46.667969 18.664062 46.667969 L 46.667969 46.667969 L 46.667969 42 L 30.429688 42 L 47.28125 25.148438 C 49.101562 23.328125 49.101562 20.371094 47.28125 18.550781 L 35.730469 7 C 33.914062 5.179688 30.953125 5.179688 29.132812 7 Z M 19.628906 42 L 10.285156 32.652344 L 21.363281 21.367188 L 23.097656 19.632812 L 34.648438 31.183594 L 24.015625 41.816406 C 23.957031 41.875 23.902344 41.9375 23.855469 42 Z M 19.628906 42 "/>
</g>
</svg>
