<?xml version="1.0" encoding="UTF-8"?>
<svg xmlns="http://www.w3.org/2000/svg" xmlns:xlink="http://www.w3.org/1999/xlink" width="56px" height="56px" viewBox="0 0 56 56" version="1.1">
<g id="surface1">
<path style=" stroke:none;fill-rule:nonzero;fill:rgb(100%,100%,100%);fill-opacity:1;" d="M 11.484375 11.484375 L 11.484375 44.515625 L 28 44.515625 C 44.1875 44.515625 44.1875 11.484375 28 11.484375 Z M 1.75 16.515625 L 1.75 18.484375 L 9.515625 18.484375 L 9.515625 16.515625 Z M 45.5 25.484375 C 44.101562 25.484375 42.984375 26.601562 42.984375 28 C 42.984375 29.398438 44.101562 30.515625 45.5 30.515625 C 46.898438 30.515625 48.015625 29.398438 48.015625 28 C 48.015625 26.601562 46.898438 25.484375 45.5 25.484375 Z M 49.875 27.015625 C 49.941406 27.332031 49.984375 27.660156 49.984375 28 C 49.984375 28.339844 49.941406 28.667969 49.875 28.984375 L 54.25 28.984375 L 54.25 27.015625 Z M 1.75 37.515625 L 1.75 39.484375 L 9.515625 39.484375 L 9.515625 37.515625 Z M 1.75 37.515625 "/>
</g>
</svg>
