<?xml version="1.0" encoding="UTF-8"?>
<svg xmlns="http://www.w3.org/2000/svg" xmlns:xlink="http://www.w3.org/1999/xlink" width="56px" height="56px" viewBox="0 0 56 56" version="1.1">
<g id="surface1">
<path style=" stroke:none;fill-rule:nonzero;fill:rgb(100%,100%,100%);fill-opacity:1;" d="M 12.753906 11.484375 C 17.128906 16.503906 19.359375 22.246094 19.359375 28 C 19.359375 33.753906 17.128906 39.496094 12.753906 44.515625 L 21 44.515625 C 24.730469 44.515625 29.957031 40.796875 34.046875 36.707031 C 36.09375 34.671875 37.886719 32.5625 39.144531 30.875 C 39.78125 30.046875 40.28125 29.300781 40.609375 28.753906 C 40.765625 28.480469 40.882812 28.242188 40.960938 28.085938 C 40.972656 28.042969 40.984375 28.03125 40.984375 28 C 40.984375 27.96875 40.972656 27.945312 40.960938 27.902344 C 40.894531 27.75 40.773438 27.519531 40.609375 27.246094 C 40.28125 26.6875 39.789062 25.953125 39.167969 25.113281 C 37.929688 23.429688 36.160156 21.328125 34.125 19.292969 C 30.054688 15.203125 24.839844 11.484375 21 11.484375 Z M 1.75 16.515625 L 1.75 18.484375 L 15.117188 18.484375 C 14.789062 17.816406 14.425781 17.160156 14.03125 16.515625 Z M 45.5 25.484375 C 44.101562 25.484375 42.984375 26.601562 42.984375 28 C 42.984375 29.398438 44.101562 30.515625 45.5 30.515625 C 46.898438 30.515625 48.015625 29.398438 48.015625 28 C 48.015625 26.601562 46.898438 25.484375 45.5 25.484375 Z M 49.875 27.015625 C 49.941406 27.332031 49.984375 27.660156 49.984375 28 C 49.984375 28.339844 49.941406 28.667969 49.875 28.984375 L 54.25 28.984375 L 54.25 27.015625 Z M 1.75 37.515625 L 1.75 39.484375 L 14.03125 39.484375 C 14.425781 38.839844 14.789062 38.183594 15.117188 37.515625 Z M 1.75 37.515625 "/>
</g>
</svg>
