<?xml version="1.0" encoding="UTF-8"?>
<svg xmlns="http://www.w3.org/2000/svg" xmlns:xlink="http://www.w3.org/1999/xlink" width="56px" height="56px" viewBox="0 0 56 56" version="1.1">
<g id="surface1">
<path style=" stroke:none;fill-rule:nonzero;fill:rgb(100%,100%,100%);fill-opacity:1;" d="M 5.890625 9.753906 L 4.609375 11.242188 C 6.578125 12.929688 8.207031 14.699219 9.511719 16.515625 L 1.75 16.515625 L 1.75 18.484375 L 10.78125 18.484375 C 12.566406 21.578125 13.453125 24.796875 13.453125 28 C 13.453125 31.203125 12.566406 34.421875 10.78125 37.515625 L 1.75 37.515625 L 1.75 39.484375 L 9.511719 39.484375 C 8.207031 41.300781 6.578125 43.070312 4.609375 44.757812 L 5.890625 46.242188 C 8.363281 44.121094 10.359375 41.859375 11.878906 39.484375 L 14.03125 39.484375 C 14.425781 38.839844 14.789062 38.183594 15.117188 37.515625 L 13.015625 37.515625 C 14.613281 34.429688 15.421875 31.226562 15.421875 28 C 15.421875 24.773438 14.613281 21.570312 13.015625 18.484375 L 15.117188 18.484375 C 14.789062 17.816406 14.425781 17.160156 14.03125 16.515625 L 11.878906 16.515625 C 10.359375 14.140625 8.363281 11.867188 5.890625 9.753906 Z M 12.753906 11.484375 C 17.128906 16.503906 19.359375 22.246094 19.359375 28 C 19.359375 33.753906 17.128906 39.496094 12.753906 44.515625 L 21 44.515625 C 24.730469 44.515625 29.957031 40.796875 34.046875 36.707031 C 36.09375 34.671875 37.886719 32.5625 39.144531 30.875 C 39.78125 30.046875 40.28125 29.300781 40.609375 28.753906 C 40.765625 28.480469 40.882812 28.242188 40.960938 28.085938 C 40.972656 28.042969 40.984375 28.03125 40.984375 28 C 40.984375 27.96875 40.972656 27.945312 40.960938 27.902344 C 40.894531 27.75 40.773438 27.519531 40.609375 27.246094 C 40.28125 26.6875 39.789062 25.953125 39.167969 25.113281 C 37.929688 23.429688 36.160156 21.328125 34.125 19.292969 C 30.054688 15.203125 24.839844 11.484375 21 11.484375 Z M 42.710938 27.015625 C 42.734375 27.046875 42.753906 27.09375 42.765625 27.125 C 42.886719 27.386719 42.984375 27.605469 42.984375 28 C 42.984375 28.394531 42.875 28.613281 42.765625 28.875 C 42.753906 28.90625 42.734375 28.953125 42.710938 28.984375 L 54.25 28.984375 L 54.25 27.015625 Z M 42.710938 27.015625 "/>
</g>
</svg>
